<svg overflow="visible" style="display: block;" viewBox="0 0 108 109" fill="none" xmlns="http://www.w3.org/2000/svg">
<g id="Group 1">
<path id="Vector" d="M94.9125 56.6445C93.143 56.0451 91.4888 55.1824 89.6327 54.8072C77.3661 52.3362 66.2486 65.3197 53.6694 64.9395C51.3469 64.8713 48.8657 64.1061 46.5864 63.7162C48.5435 65.6754 51.0007 67.4495 53.3376 68.931C55.3043 70.1836 58.2039 72.0307 60.4735 72.4206C60.7428 72.4693 61.7334 72.7228 61.7334 72.2451C57.5788 71.709 58.3049 66.041 62.7865 66.4114C68.1673 66.8597 69.4079 73.3222 65.0802 76.2367C58.6703 80.5547 47.6635 72.0648 42.6338 68.0879C39.3399 65.4805 36.2816 62.5855 33.1272 59.8124C34.69 64.3937 36.9164 68.8287 39.6621 72.8056C45.0573 80.6181 51.0776 84.556 60.7669 81.1249C62.1325 80.6425 63.2962 79.848 64.6233 79.3119C61.7142 84.0784 57.1364 87.8896 51.6931 89.2298C50.1688 89.6051 46.8413 90.2874 45.4323 89.8683C43.8599 89.3956 38.0079 84.2538 36.4932 82.8453C31.3096 78.0448 26.5299 72.4986 22.5532 66.6404C24.7507 67.3276 26.6164 68.1171 28.4533 66.1579C30.5787 63.8868 29.7997 60.1097 27.8522 57.9799C25.9048 55.8501 23.7649 55.9574 21.4328 54.9826C18.086 53.5888 15.023 50.8156 13.6573 47.3846C12.8976 48.3203 12.6139 50.0554 12.335 51.2786C11.0271 57.0101 11.003 62.5807 11.681 68.3998L7.89668 74.6722C7.2379 71.7383 6.50219 68.7848 6.21368 65.7778C5.13656 54.5732 8.17076 42.8813 14.4315 33.6604C21.0337 23.9325 31.0932 16.9193 42.3981 14C42.7155 14.2778 42.2154 14.848 42.0712 15.1307C41.6047 16.0469 39.3447 20.1408 38.7917 20.5794C37.9214 21.2764 35.8873 21.8125 34.8102 22.3924C25.4576 27.3977 17.7927 35.3174 14.1863 45.5228C16.4078 47.6039 20.096 49.5485 23.1639 49.8117C30.8335 50.4745 39.3014 42.9885 46.8942 40.9757C57.8625 38.0661 66.2246 44.436 76.2312 47.4431C81.4822 49.0221 88.118 49.2561 92.4072 52.9796C92.9121 53.4182 95.4607 56.0597 94.9269 56.6397L94.9125 56.6445ZM40.3353 15.7107C24.8228 20.3455 12.3109 33.6067 8.43043 49.529C6.94939 55.6162 6.59836 63.1655 7.74761 69.3258C7.82455 69.7303 8.14191 71.7578 8.47851 71.748L10.7193 67.9271C7.9688 50.3575 16.1049 32.6223 30.9778 23.4013C32.5117 22.4509 37.3924 20.4284 38.157 19.7119C38.4311 19.4585 40.5036 15.8764 40.3305 15.7058L40.3353 15.7107ZM92.0274 54.2077C87.642 49.9969 81.2321 50.0895 75.7359 48.4275C65.5851 45.3571 57.4345 38.8021 46.221 42.2672C36.5028 45.2694 28.6889 54.349 17.8889 49.3048C16.8262 48.8077 15.9222 48.0864 14.8499 47.638C16.1722 50.26 18.5428 52.5214 21.1779 53.774C23.5053 54.8803 25.8422 54.9144 27.9484 56.6592C32.2569 60.2218 31.6798 68.5509 25.1883 68.3511L25.2268 68.9164C30.4152 75.4033 36.3586 81.9778 43.004 86.9636C43.8503 87.5972 44.9803 88.7035 45.9805 88.8205C51.1161 89.4443 57.8288 86.2959 61.0121 82.2361C52.0778 84.8777 45.9709 82.6991 40.3401 75.5251C36.1662 70.2031 32.6608 63.0193 31.199 56.4009C34.4111 59.4323 37.5511 62.5758 40.9411 65.4123C45.7545 69.4379 55.4342 77.0993 61.8536 76.3877C65.0176 76.0368 67.773 72.9372 66.2727 69.7108C65.1186 67.2253 59.9013 66.3139 60.0312 69.433C60.1418 72.0209 64.1521 71.9186 63.9021 69.0773C65.0898 68.7312 65.7918 70.5052 65.4697 71.519C64.8638 73.4343 62.0411 73.6244 60.4062 73.4538C57.5115 73.1565 52.3326 69.5744 49.8707 67.8052C46.6153 65.4659 43.4801 62.8097 40.8113 59.8124C43.7782 61.1868 46.4373 62.7123 49.7024 63.3458C59.8436 65.3148 65.4504 60.5581 74.0674 56.8444C79.9338 54.3149 85.5887 52.307 92.0226 54.2028L92.0274 54.2077Z" fill="var(--fill-0, white)"/>
<path id="Vector_2" d="M107.995 93H50L55.9638 91.0717C57.0271 91.0815 60.9273 87.8217 61.2366 87.8217H99.0542L82.4193 58.0635C82.2985 57.6295 82.4096 57.7922 82.6851 57.6788C83.526 57.3287 86.9574 56.7516 87.7017 57.1166L108 92.9951L107.995 93ZM106.304 92.0137L87.2136 58.3545C86.1117 58.098 84.8648 58.1375 83.8305 58.6011L100.746 88.8129H61.7199L56.7661 92.0186H106.304V92.0137Z" fill="var(--fill-0, white)"/>
<path id="Vector_3" d="M90.9806 41.259C91.0874 41.6942 90.7282 41.8099 90.5 42.0692C82.2805 51.4257 69.9974 41.4257 60.8845 38.8238C55.9276 37.4071 50.4414 37.0831 45.3825 38.1664C35.2647 40.3423 25.6907 52.1618 15 44.3794C16.5148 44.0646 18.1023 44.009 19.622 43.6942C27.1181 42.1294 32.8324 37.1849 39.7702 34.4349C49.6307 30.5275 58.7289 31.5877 68.2496 35.7312C75.2699 38.7868 82.9165 45.5136 90.9806 41.2544V41.259ZM87.0966 43.5738C79.9889 44.2821 74.3329 39.5044 68.3272 36.8192C60.87 33.4812 52.8641 31.8608 44.7562 33.8655C36.0658 36.0182 29.7203 41.9997 21.2581 44.3284C20.8017 44.4534 18.1509 44.8284 18.1509 45.0738C28.3027 48.6849 35.6774 39.2358 45.1446 37.2451C57.3015 34.6895 63.1615 39.0136 73.5075 42.9812C77.5469 44.5321 83.2855 46.3794 87.0918 43.5692L87.0966 43.5738Z" fill="var(--fill-0, white)"/>
<path id="Vector_4" d="M0 93L20.1919 57.0789C21.019 56.5262 23.8802 59.0433 24.7602 59.448L8.89618 87.8177H37.6284L44 93H0ZM7.21311 88.8048L23.2984 60.0156L23.2166 59.68L20.8363 58.4708L1.68306 92.0129H40.8743L37.1475 88.8048H7.21311Z" fill="var(--fill-0, white)"/>
<path id="Vector_5" d="M99.7708 73.9952C99.7416 73.6482 99.586 73.3205 99.4158 73.0217C98.8178 71.9807 96.338 68.3374 96.1726 67.5566C96.0608 67.0361 96.5519 65.6434 96.6054 64.959C98.1079 45.2193 87.5079 27.812 68.9045 20.612L65 14C81.4299 17.894 95.0105 30.4771 99.8875 46.5301C102.319 54.5398 102.771 63.9518 100.617 72.0723C100.461 72.6651 100.301 73.7157 99.7659 74L99.7708 73.9952ZM86.4868 26.9108C82.1885 22.8386 77.3358 19.5036 71.8073 17.2482L67.1929 15.7976C68.0098 16.6651 68.7294 18.9976 69.4442 19.7108C69.8283 20.0916 72.2109 20.8145 72.9451 21.1807C88.5095 29.0313 98.5892 44.7133 97.821 62.3036C97.7626 63.6675 97.1548 66.1253 97.3493 67.3494C97.4952 68.2699 99.1824 70.4964 99.7659 71.3398C103.51 55.1711 98.4871 38.2747 86.4868 26.9108Z" fill="var(--fill-0, white)"/>
<path id="Vector_6" d="M75 35L66.7397 31.1543L54.2505 10.0699L42.3986 29.6102C41.6131 30.5213 39.6913 30.8378 38.5254 31.3653C36.9939 32.051 35.4772 32.775 34 33.5662L53.7614 0L75 35ZM72.2828 32.3627L53.7614 1.91807L36.7123 30.9241L41.5143 28.9964L52.971 9.66708L54.1221 8.1518L67.3326 30.272L72.2828 32.3627Z" fill="var(--fill-0, white)"/>
<path id="Vector_7" d="M88 95.0049C82.1246 101.171 73.8216 105.743 65.5622 107.686C49.3867 111.492 33.54 106.891 21.4313 95.6917C21.1944 95.4709 20.9139 95.4758 21.0251 95H28.8832C29.1443 95 32.3939 97.5263 33.1918 97.9874C46.0307 105.351 61.6646 105.562 74.7066 98.5663C75.6737 98.0463 79.8179 95.0049 80.1419 95.0049H88ZM85.3403 95.986H80.6255C80.3547 95.986 76.8053 98.5565 76.0751 98.9734C62.8784 106.474 46.6497 106.695 33.3514 99.307C32.4761 98.8214 28.6946 95.9909 28.3996 95.9909H23.6848C23.5639 96.4765 23.883 96.4667 24.091 96.6826C31.9635 104.865 48.1777 108.887 59.1017 107.764C68.5652 106.788 78.4301 102.633 85.3355 95.9909L85.3403 95.986Z" fill="var(--fill-0, white)"/>
<path id="Vector_8" d="M92 84H65L67.9867 79.7472H84.5929L74.1083 61.668L78.1464 60L92 84ZM90.3274 83.0549L77.6685 61.1813L75.5181 62.1453L86.2655 80.6923H68.7035L66.9115 83.0549H90.3274Z" fill="var(--fill-0, white)"/>
<path id="Vector_9" d="M73.9951 95.1408C72.9904 96.0727 71.4247 96.8295 70.181 97.4164C58.6702 102.863 44.8328 102.065 34 95.2643C37.4923 95.3158 41.6722 94.7495 45.1011 95.1356C48.5299 95.5218 51.4564 96.6184 55.3535 96.4382C58.041 96.3146 60.6553 95.3931 63.1477 95.1408C66.5911 94.7958 70.5029 95.3879 74 95.1408H73.9951ZM69.8493 96.1705C67.8349 96.3043 65.6205 95.98 63.6354 96.1705C59.5676 96.5618 56.6314 97.7047 52.1588 97.4679C49.5298 97.3289 47.0326 96.4125 44.6085 96.1705C42.6282 95.9697 40.3992 96.3095 38.3897 96.1705C38.6677 96.7317 39.5018 96.9016 40.0383 97.1332C48.7689 100.922 59.2603 100.799 68.03 97.2053C68.5714 96.9839 69.5079 96.6596 69.8493 96.1705Z" fill="var(--fill-0, white)"/>
<path id="Vector_10" d="M23.1067 79.5918H29.5667L34 84H15L22.2251 72L25.336 75.3453L23.1067 79.5918ZM21.08 80.5714L24.0845 75.5069L22.4733 73.7143L17.0267 83.0155H31.4667L29.06 80.5665H21.08V80.5714Z" fill="var(--fill-0, white)"/>
<path id="Vector_11" d="M61 28.9954L55.7595 28.1429L54.4976 26.25L52.8888 28.0375L48 28.3079L54.382 18L61 29V28.9954ZM59.0734 27.6204L54.3772 19.8333L49.9218 27.1667C52.8648 27.5746 53.0237 25.9521 54.4928 24.1875L56.1015 27.185L59.0734 27.6204Z" fill="var(--fill-0, white)"/>
<path id="Vector_12" d="M85.9951 40C84.1386 39.9902 79.7106 38.9469 78.4223 37.6588C77.5161 36.7478 74.5233 31.1494 73.7101 29.6359C73.5534 29.3518 72.8774 28.1763 73.0195 28C78.1088 31.0367 82.6643 35.0825 86 39.9951L85.9951 40ZM83.546 38.5306C83.9574 38.222 77.0165 31.5951 76.1985 31.4335L79.2109 36.9927C79.8624 37.3257 83.0904 38.8735 83.546 38.5355V38.5306Z" fill="var(--fill-0, white)"/>
<path id="Vector_13" d="M34.9957 28.0125C35.039 28.4388 34.7455 28.7693 34.553 29.1285C33.9564 30.2491 31.1754 35.3449 30.5499 35.9196C29.9244 36.4943 26.874 38.0125 25.9021 38.4771C25.3728 38.7309 22.2598 40.1821 22 39.9809C24.6126 36.0106 28.1057 32.4378 32.027 29.7319C32.3687 29.4972 34.8225 27.8401 34.9861 28.0125H34.9957ZM32.1088 31.1256L28.736 33.6352L25.1322 37.5863C25.3391 37.7539 29.5203 35.4503 29.8619 35.115C30.6654 34.3152 31.4112 32.1409 32.1088 31.1256Z" fill="var(--fill-0, white)"/>
<path id="Vector_14" d="M48.2 44.005C45.6128 48.861 49.3376 54.1351 54.5696 52.5785C57.9968 51.561 58.8752 47.0526 57.32 44.005C64.2416 45.3752 69.8864 50.5334 77 51.43C75.4064 52.3368 73.5584 52.8203 71.8736 53.6062C67.7456 55.5304 63.7088 58.4369 59.24 59.4897C48.2336 62.089 39.6704 53.9437 29 53.314L36.6848 49.4202C40.3328 47.2289 44.0432 44.9571 48.2 44V44.005ZM73.4 51.561C71.4032 51.7978 59.5424 44.9269 59 45.5162C60.0992 50.619 55.928 55.067 51.0272 53.7573C48.4688 53.0722 46.4672 50.3873 46.2992 47.6168C46.2608 46.9569 46.8464 45.6825 46.16 45.758L32.84 52.6944C39.3536 54.0041 45.3872 57.8526 51.9536 58.8299C57.5216 59.656 61.4768 57.7468 66.3536 55.3743L73.4 51.561Z" fill="var(--fill-0, white)"/>
</g>
</svg>
